<?xml version="1.0" encoding="UTF-8"?>
<svg id="Layer_1" data-name="Layer 1" xmlns="http://www.w3.org/2000/svg" viewBox="0 0 346.73 96.18">
  <defs>
    <style>
      .cls-1 {
        fill: #093d5e;
      }
    </style>
  </defs>
  <path class="cls-1" d="M17.35,94.87v-54.87H0v-8.82h17.35v-3.42C17.35,10.92,36.48,0,71.18,0c11.48,0,25,1.84,31.38,4.21l-6.38,8.82c-5.36-1.97-15.05-3.68-26.02-3.68-23.73,0-30.62,8.55-30.62,18.68v3.16h71.69v63.68h-22.2v-54.87h-49.5v54.87h-22.2Z"/>
  <path class="cls-1" d="M151.53,12.89v18.29h32.15v8.82h-32.15v34.34c0,7.89,4.34,12.37,16.84,12.37,5.87,0,10.21-.39,13.01-.79l1.02,8.68c-4.34.92-11.23,1.58-19.9,1.58-10.46,0-18.88-1.71-24.24-4.87-6.38-3.42-8.67-9.08-8.67-16.58v-34.74h-19.13v-8.82h19.13v-15.26l21.94-3.03Z"/>
  <path class="cls-1" d="M183.93,48.42c0-6.58-.26-11.97-1.02-17.24h19.9l1.28,10.53h.51c6.12-6.05,20.41-11.97,40.82-11.97,17.09,0,43.63,5.26,43.63,27.1v38.03h-22.45v-36.71c0-10.26-7.4-18.82-28.57-18.82-14.8,0-26.28,5.39-30.11,11.84-1.02,1.45-1.53,3.42-1.53,5.4v38.29h-22.45v-46.45Z"/>
  <path class="cls-1" d="M271.47,82.02c6.63,2.24,18.37,4.6,29.59,4.6,16.33,0,23.98-4.21,23.98-9.47,0-5.53-6.38-8.55-22.96-11.71-22.2-4.08-32.66-10.39-32.66-18.03,0-10.26,16.07-18.68,42.61-18.68,12.5,0,23.47,1.84,30.36,3.95l-5.61,8.42c-4.85-1.58-13.78-3.68-25.26-3.68-13.27,0-20.67,3.95-20.67,8.68,0,5.26,7.4,7.63,23.47,10.79,21.43,4.21,32.4,9.74,32.4,19.21,0,11.18-16.84,19.08-46.18,19.08-13.52,0-26.02-1.71-34.7-4.34l5.61-8.82Z"/>
</svg>